<?xml version="1.0" standalone="no"?>
<!DOCTYPE svg PUBLIC "-//W3C//DTD SVG 20010904//EN"
 "http://www.w3.org/TR/2001/REC-SVG-20010904/DTD/svg10.dtd">
<svg version="1.0" xmlns="http://www.w3.org/2000/svg"
 width="260.000000pt" height="260.000000pt" viewBox="0 0 260.000000 260.000000"
 preserveAspectRatio="xMidYMid meet">
<metadata>
Created by potrace 1.11, written by Peter Selinger 2001-2013
</metadata>
<g transform="translate(0.000000,260.000000) scale(0.100000,-0.100000)"
fill="#000000" stroke="none">
<path d="M629 2406 c-2 -2 -44 -6 -94 -9 -49 -4 -97 -8 -105 -10 -8 -2 -31 -7
-50 -11 -56 -13 -127 -53 -169 -95 -55 -55 -82 -134 -83 -241 -1 -128 31 -220
120 -347 26 -37 46 -79 49 -101 7 -52 -13 -120 -44 -148 -35 -32 -144 -62
-231 -64 -22 0 -23 -3 -20 -66 l3 -66 45 -3 c74 -6 113 -15 159 -38 62 -30 83
-63 87 -134 3 -53 -1 -66 -37 -133 -110 -206 -131 -269 -130 -395 1 -96 3
-110 31 -172 57 -130 184 -190 418 -198 l92 -3 0 94 0 94 -57 1 c-195 2 -284
33 -322 113 -41 83 -20 190 59 306 67 99 91 159 91 232 0 104 -20 158 -77 212
-35 33 -125 76 -159 76 -8 0 -17 6 -21 13 -4 6 -4 9 0 6 11 -10 120 18 156 39
40 25 85 87 95 132 12 53 8 137 -10 189 -8 27 -42 90 -74 143 -70 113 -85 155
-79 219 11 116 111 167 326 168 l72 1 0 94 c0 76 -3 95 -16 100 -18 7 -19 7
-25 2z"/>
<path d="M1940 2400 c-9 -6 -13 -33 -12 -95 0 -47 2 -88 4 -90 1 -1 48 -5 103
-9 55 -3 119 -10 143 -16 96 -23 146 -83 146 -175 -1 -56 -19 -102 -76 -189
-96 -145 -119 -270 -71 -377 32 -71 96 -115 183 -126 42 -6 65 -23 29 -23 -42
0 -143 -55 -177 -96 -37 -44 -53 -93 -57 -174 -5 -72 18 -136 84 -239 66 -103
79 -135 84 -203 7 -89 -23 -152 -88 -186 -45 -23 -89 -31 -200 -38 -55 -4
-102 -8 -104 -10 -3 -3 -4 -93 -2 -163 l1 -23 102 6 c252 16 372 83 419 236
44 143 16 293 -91 480 -45 80 -54 105 -58 156 -4 60 10 108 43 140 27 27 116
53 205 60 14 1 31 2 38 3 8 1 12 21 12 66 0 61 -2 65 -22 66 -191 4 -278 62
-278 182 0 53 8 72 73 169 74 110 91 164 91 298 1 104 -1 120 -25 170 -31 64
-77 113 -132 141 -56 29 -172 56 -249 58 -37 1 -76 4 -86 6 -10 2 -25 0 -32
-5z"/>
<path d="M1603 1799 c-116 -15 -197 -83 -229 -192 -14 -51 -18 -104 -19 -307
-1 -245 4 -292 37 -370 39 -89 121 -139 228 -140 89 0 133 14 180 59 42 40 50
37 50 -20 0 -29 0 -29 60 -29 55 0 60 2 61 23 0 28 0 468 0 483 -1 8 -48 12
-151 12 -123 1 -150 -2 -151 -14 0 -8 0 -34 0 -59 0 -93 -7 -85 71 -85 l70 0
-5 -57 c-7 -82 -21 -116 -55 -136 -37 -22 -114 -24 -163 -4 -60 26 -69 77 -65
360 3 252 6 266 62 302 30 20 114 22 153 3 37 -17 63 -72 72 -150 1 -7 150 0
162 8 9 5 -9 113 -27 162 -45 121 -164 173 -341 151z"/>
<path d="M840 1791 c-81 -26 -132 -72 -168 -151 -21 -44 -26 -71 -26 -136 0
-171 62 -239 269 -295 95 -25 150 -52 165 -78 17 -33 12 -106 -10 -133 -30
-38 -72 -51 -146 -45 -71 5 -168 47 -216 92 -31 29 -29 30 -58 -54 l-22 -63
23 -25 c62 -66 180 -113 287 -113 138 0 234 52 287 155 27 53 30 67 30 154 0
83 -4 102 -25 141 -37 66 -92 102 -211 139 -187 58 -209 74 -209 150 0 61 41
102 107 108 66 7 145 -17 208 -61 27 -20 52 -32 55 -28 4 4 14 33 24 66 l18
58 -29 30 c-15 16 -56 43 -90 60 -52 25 -77 31 -150 34 -49 2 -99 0 -113 -5z"/>
</g>
</svg>
